<svg xmlns="http://www.w3.org/2000/svg" xmlns:xlink="http://www.w3.org/1999/xlink" width="1160" height="948.4"><rect width="1160" height="948.4" rx="5" ry="5" class="a"/><svg y="0%" x="0%"><circle cx="20" cy="20" r="6" fill="#ff5f58"/><circle cx="40" cy="20" r="6" fill="#ffbd2e"/><circle cx="60" cy="20" r="6" fill="#18c132"/></svg><svg height="868.4" viewBox="0 0 110 86.84" width="1100" x="25" xmlns="http://www.w3.org/2000/svg" xmlns:xlink="http://www.w3.org/1999/xlink" y="60"><style>@keyframes h{0%{transform:translateX(0)}.3%{transform:translateX(-110px)}24.9%{transform:translateX(-220px)}49.6%{transform:translateX(-330px)}52.6%{transform:translateX(-550px)}53.1%{transform:translateX(-660px)}77.7%{transform:translateX(-770px)}to{transform:translateX(-880px)}}.a{fill:#282d35}.f{fill:#b9c0cb;white-space:pre}</style><g font-family="Monaco,Consolas,Menlo,'Bitstream Vera Sans Mono','Powerline Symbols',monospace" font-size="1.67"><defs><symbol id="1"><text y="1.67" class="f">#</text><text x="2.004" y="1.67" class="f">Step</text><text x="7.014" y="1.67" class="f">1:</text><text x="10.02" y="1.67" class="f">Install</text><text x="18.036" y="1.67" class="f">flyte</text></symbol><symbol id="2"><text y="1.67" class="f">$</text><text x="2.004" y="1.67" class="f">uv</text><text x="5.01" y="1.67" class="f">venv</text><text x="10.02" y="1.67" class="f">.venv</text><text x="16.032" y="1.67" class="f">--python</text><text x="25.05" y="1.67" class="f">3.12</text></symbol><symbol id="3"><text y="1.67" class="f">Using</text><text x="6.012" y="1.67" class="f">CPython</text><text x="14.028" y="1.67" class="f">3.12</text></symbol><symbol id="4"><text y="1.67" class="f">Creating</text><text x="9.018" y="1.67" class="f">virtual</text><text x="17.034" y="1.67" class="f">environment</text><text x="29.058" y="1.67" class="f">at:</text><text x="33.066" y="1.67" class="f">.venv</text></symbol><symbol id="5"><text y="1.67" class="f">$</text><text x="2.004" y="1.67" class="f">uv</text><text x="5.01" y="1.67" class="f">pip</text><text x="9.018" y="1.67" class="f">install</text><text x="17.034" y="1.67" class="f">flyte</text></symbol><symbol id="6"><text x="2.004" y="1.67" class="f">Installed</text><text x="12.024" y="1.67" class="f">aiofiles&gt;=24.1.0</text></symbol><symbol id="7"><text x="2.004" y="1.67" class="f">Installed</text><text x="12.024" y="1.67" class="f">click&gt;=8.2.1</text></symbol><symbol id="8"><text x="2.004" y="1.67" class="f">Installed</text><text x="12.024" y="1.67" class="f">cloudpickle&gt;=3.1.1</text></symbol><symbol id="9"><text x="2.004" y="1.67" class="f">Installed</text><text x="12.024" y="1.67" class="f">docstring_parser&gt;=0.16</text></symbol><symbol id="10"><text x="2.004" y="1.67" class="f">Installed</text><text x="12.024" y="1.67" class="f">fsspec&gt;=2025.3.0</text></symbol><symbol id="11"><text x="2.004" y="1.67" class="f">Installed</text><text x="12.024" y="1.67" class="f">grpcio&gt;=1.71.0</text></symbol><symbol id="12"><text x="2.004" y="1.67" class="f">Installed</text><text x="12.024" y="1.67" class="f">obstore&gt;=0.7.3</text></symbol><symbol id="13"><text x="2.004" y="1.67" class="f">Installed</text><text x="12.024" y="1.67" class="f">protobuf&gt;=6.30.1</text></symbol><symbol id="14"><text x="2.004" y="1.67" class="f">Installed</text><text x="12.024" y="1.67" class="f">pydantic&gt;=2.10.6</text></symbol><symbol id="15"><text x="2.004" y="1.67" class="f">Installed</text><text x="12.024" y="1.67" class="f">pyyaml&gt;=6.0.2</text></symbol><symbol id="16"><text x="2.004" y="1.67" class="f">Installed</text><text x="12.024" y="1.67" class="f">rich-click==1.8.9</text></symbol><symbol id="17"><text x="2.004" y="1.67" class="f">Installed</text><text x="12.024" y="1.67" class="f">httpx&lt;1.0.0,&gt;=0.28.1</text></symbol><symbol id="18"><text x="2.004" y="1.67" class="f">Installed</text><text x="12.024" y="1.67" class="f">keyring&gt;=25.6.0</text></symbol><symbol id="19"><text x="2.004" y="1.67" class="f">Installed</text><text x="12.024" y="1.67" class="f">msgpack&gt;=1.1.0</text></symbol><symbol id="20"><text x="2.004" y="1.67" class="f">Installed</text><text x="12.024" y="1.67" class="f">toml&gt;=0.10.2</text></symbol><symbol id="21"><text x="2.004" y="1.67" class="f">Installed</text><text x="12.024" y="1.67" class="f">async-lru&gt;=2.0.5</text></symbol><symbol id="22"><text x="2.004" y="1.67" class="f">Installed</text><text x="12.024" y="1.67" class="f">mashumaro</text></symbol><symbol id="23"><text x="2.004" y="1.67" class="f">Installed</text><text x="12.024" y="1.67" class="f">aiolimiter&gt;=1.2.1</text></symbol><symbol id="24"><text x="2.004" y="1.67" class="f">Installed</text><text x="12.024" y="1.67" class="f">flyteidl2==2.0.7</text></symbol><symbol id="25"><text x="2.004" y="1.67" class="f">Installed</text><text x="12.024" y="1.67" class="f">packaging</text></symbol><symbol id="26"><text x="2.004" y="1.67" class="f">Installed</text><text x="12.024" y="1.67" class="f">flyte</text></symbol><symbol id="27"><text y="1.67" class="f">$</text><text x="2.004" y="1.67" class="f">python</text><text x="9.018" y="1.67" class="f">-c</text><text x="12.024" y="1.67" class="f">&quot;import</text><text x="20.04" y="1.67" class="f">flyte;</text><text x="27.054" y="1.67" class="f">print(flyte.__version__)&quot;</text></symbol><symbol id="a"><path fill="transparent" d="M0 0h110v40H0z"/></symbol></defs><path class="a" d="M0 0h110v86.84H0z"/><g style="animation-duration:1.222335s;animation-iteration-count:infinite;animation-name:h;animation-timing-function:steps(1,end)"><svg width="990"><svg><use xlink:href="#a"/></svg><svg x="110"><use xlink:href="#a"/><use xlink:href="#1"/></svg><svg x="220"><use xlink:href="#a"/><use xlink:href="#1"/><use xlink:href="#2" y="2.171"/><use xlink:href="#3" y="4.342"/><use xlink:href="#4" y="6.513"/></svg><svg x="330"><use xlink:href="#a"/><use xlink:href="#1"/><use xlink:href="#2" y="2.171"/><use xlink:href="#3" y="4.342"/><use xlink:href="#4" y="6.513"/><use xlink:href="#5" y="10.855"/></svg><svg x="440"><use xlink:href="#a"/><use xlink:href="#1"/><use xlink:href="#2" y="2.171"/><use xlink:href="#3" y="4.342"/><use xlink:href="#4" y="6.513"/><use xlink:href="#5" y="10.855"/><use xlink:href="#6" y="13.026"/><use xlink:href="#7" y="15.197"/><use xlink:href="#8" y="17.368"/><use xlink:href="#9" y="19.539"/><use xlink:href="#10" y="21.71"/><use xlink:href="#11" y="23.881"/><use xlink:href="#12" y="26.052"/><use xlink:href="#13" y="28.223"/><use xlink:href="#14" y="30.394"/><use xlink:href="#15" y="32.565"/><use xlink:href="#16" y="34.736"/><use xlink:href="#17" y="36.907"/><use xlink:href="#18" y="39.078"/><use xlink:href="#19" y="41.249"/><use xlink:href="#20" y="43.42"/><use xlink:href="#21" y="45.591"/><use xlink:href="#22" y="47.762"/><use xlink:href="#23" y="49.933"/><use xlink:href="#24" y="52.104"/></svg><svg x="550"><use xlink:href="#a"/><use xlink:href="#1"/><use xlink:href="#2" y="2.171"/><use xlink:href="#3" y="4.342"/><use xlink:href="#4" y="6.513"/><use xlink:href="#5" y="10.855"/><use xlink:href="#6" y="13.026"/><use xlink:href="#7" y="15.197"/><use xlink:href="#8" y="17.368"/><use xlink:href="#9" y="19.539"/><use xlink:href="#10" y="21.71"/><use xlink:href="#11" y="23.881"/><use xlink:href="#12" y="26.052"/><use xlink:href="#13" y="28.223"/><use xlink:href="#14" y="30.394"/><use xlink:href="#15" y="32.565"/><use xlink:href="#16" y="34.736"/><use xlink:href="#17" y="36.907"/><use xlink:href="#18" y="39.078"/><use xlink:href="#19" y="41.249"/><use xlink:href="#20" y="43.42"/><use xlink:href="#21" y="45.591"/><use xlink:href="#22" y="47.762"/><use xlink:href="#23" y="49.933"/><use xlink:href="#24" y="52.104"/><use xlink:href="#25" y="54.275"/></svg><svg x="660"><use xlink:href="#a"/><use xlink:href="#1"/><use xlink:href="#2" y="2.171"/><use xlink:href="#3" y="4.342"/><use xlink:href="#4" y="6.513"/><use xlink:href="#5" y="10.855"/><use xlink:href="#6" y="13.026"/><use xlink:href="#7" y="15.197"/><use xlink:href="#8" y="17.368"/><use xlink:href="#9" y="19.539"/><use xlink:href="#10" y="21.71"/><use xlink:href="#11" y="23.881"/><use xlink:href="#12" y="26.052"/><use xlink:href="#13" y="28.223"/><use xlink:href="#14" y="30.394"/><use xlink:href="#15" y="32.565"/><use xlink:href="#16" y="34.736"/><use xlink:href="#17" y="36.907"/><use xlink:href="#18" y="39.078"/><use xlink:href="#19" y="41.249"/><use xlink:href="#20" y="43.42"/><use xlink:href="#21" y="45.591"/><use xlink:href="#22" y="47.762"/><use xlink:href="#23" y="49.933"/><use xlink:href="#24" y="52.104"/><use xlink:href="#25" y="54.275"/><use xlink:href="#26" y="56.446"/></svg><svg x="770"><use xlink:href="#a"/><use xlink:href="#1"/><use xlink:href="#2" y="2.171"/><use xlink:href="#3" y="4.342"/><use xlink:href="#4" y="6.513"/><use xlink:href="#5" y="10.855"/><use xlink:href="#6" y="13.026"/><use xlink:href="#7" y="15.197"/><use xlink:href="#8" y="17.368"/><use xlink:href="#9" y="19.539"/><use xlink:href="#10" y="21.71"/><use xlink:href="#11" y="23.881"/><use xlink:href="#12" y="26.052"/><use xlink:href="#13" y="28.223"/><use xlink:href="#14" y="30.394"/><use xlink:href="#15" y="32.565"/><use xlink:href="#16" y="34.736"/><use xlink:href="#17" y="36.907"/><use xlink:href="#18" y="39.078"/><use xlink:href="#19" y="41.249"/><use xlink:href="#20" y="43.42"/><use xlink:href="#21" y="45.591"/><use xlink:href="#22" y="47.762"/><use xlink:href="#23" y="49.933"/><use xlink:href="#24" y="52.104"/><use xlink:href="#25" y="54.275"/><use xlink:href="#26" y="56.446"/><use xlink:href="#27" y="60.788"/></svg><svg x="880"><use xlink:href="#a"/><use xlink:href="#1"/><use xlink:href="#2" y="2.171"/><use xlink:href="#3" y="4.342"/><use xlink:href="#4" y="6.513"/><use xlink:href="#5" y="10.855"/><use xlink:href="#6" y="13.026"/><use xlink:href="#7" y="15.197"/><use xlink:href="#8" y="17.368"/><use xlink:href="#9" y="19.539"/><use xlink:href="#10" y="21.71"/><use xlink:href="#11" y="23.881"/><use xlink:href="#12" y="26.052"/><use xlink:href="#13" y="28.223"/><use xlink:href="#14" y="30.394"/><use xlink:href="#15" y="32.565"/><use xlink:href="#16" y="34.736"/><use xlink:href="#17" y="36.907"/><use xlink:href="#18" y="39.078"/><use xlink:href="#19" y="41.249"/><use xlink:href="#20" y="43.42"/><use xlink:href="#21" y="45.591"/><use xlink:href="#22" y="47.762"/><use xlink:href="#23" y="49.933"/><use xlink:href="#24" y="52.104"/><use xlink:href="#25" y="54.275"/><use xlink:href="#26" y="56.446"/><use xlink:href="#27" y="60.788"/><text y="64.629" class="f">2.0.7</text></svg></svg></g></g></svg></svg>