<svg xmlns="http://www.w3.org/2000/svg" xmlns:xlink="http://www.w3.org/1999/xlink" width="1160" height="948.4"><rect width="1160" height="948.4" rx="5" ry="5" class="a"/><svg y="0%" x="0%"><circle cx="20" cy="20" r="6" fill="#ff5f58"/><circle cx="40" cy="20" r="6" fill="#ffbd2e"/><circle cx="60" cy="20" r="6" fill="#18c132"/></svg><svg height="868.4" viewBox="0 0 110 86.84" width="1100" x="25" xmlns="http://www.w3.org/2000/svg" xmlns:xlink="http://www.w3.org/1999/xlink" y="60"><style>@keyframes h{0%{transform:translateX(0)}.2%{transform:translateX(-110px)}33%{transform:translateX(-220px)}33.1%{transform:translateX(-330px)}65.9%{transform:translateX(-440px)}to{transform:translateX(-770px)}}.a{fill:#282d35}.f{fill:#b9c0cb;white-space:pre}</style><g font-family="Monaco,Consolas,Menlo,'Bitstream Vera Sans Mono','Powerline Symbols',monospace" font-size="1.67"><defs><symbol id="1"><text y="1.67" class="f">#</text><text x="2.004" y="1.67" class="f">Step</text><text x="7.014" y="1.67" class="f">2:</text><text x="10.02" y="1.67" class="f">Running</text><text x="18.036" y="1.67" class="f">the</text><text x="22.044" y="1.67" class="f">README</text><text x="29.058" y="1.67" class="f">example</text><text x="37.074" y="1.67" class="f">as-is</text></symbol><symbol id="2"><text y="1.67" class="f">---</text><text x="4.008" y="1.67" class="f">Code</text><text x="9.018" y="1.67" class="f">from</text><text x="14.028" y="1.67" class="f">README</text><text x="21.042" y="1.67" class="f">---</text></symbol><symbol id="3"><text y="1.67" class="f">import</text><text x="7.014" y="1.67" class="f">asyncio</text></symbol><symbol id="4"><text y="1.67" class="f">import</text><text x="7.014" y="1.67" class="f">flyte</text></symbol><symbol id="5"><text y="1.67" class="f">env</text><text x="4.008" y="1.67" class="f">=</text><text x="6.012" y="1.67" class="f">flyte.TaskEnvironment(</text></symbol><symbol id="6"><text x="4.008" y="1.67" class="f">name=&quot;hello_world&quot;,</text></symbol><symbol id="7"><text x="4.008" y="1.67" class="f">image=flyte.Image.from_debian_base(python_version=(3,</text><text x="58.116" y="1.67" class="f">12)),</text></symbol><symbol id="8"><text y="1.67" class="f">)</text></symbol><symbol id="9"><text y="1.67" class="f">@env.task</text></symbol><symbol id="10"><text y="1.67" class="f">def</text><text x="4.008" y="1.67" class="f">calculate(x:</text><text x="17.034" y="1.67" class="f">int)</text><text x="22.044" y="1.67" class="f">-&gt;</text><text x="25.05" y="1.67" class="f">int:</text></symbol><symbol id="11"><text x="4.008" y="1.67" class="f">return</text><text x="11.022" y="1.67" class="f">x</text><text x="13.026" y="1.67" class="f">*</text><text x="15.03" y="1.67" class="f">2</text><text x="17.034" y="1.67" class="f">+</text><text x="19.038" y="1.67" class="f">5</text></symbol><symbol id="12"><text y="1.67" class="f">async</text><text x="6.012" y="1.67" class="f">def</text><text x="10.02" y="1.67" class="f">main(numbers:</text><text x="24.048" y="1.67" class="f">list[int])</text><text x="35.07" y="1.67" class="f">-&gt;</text><text x="38.076" y="1.67" class="f">float:</text></symbol><symbol id="13"><text x="4.008" y="1.67" class="f">results</text><text x="12.024" y="1.67" class="f">=</text><text x="14.028" y="1.67" class="f">await</text><text x="20.04" y="1.67" class="f">asyncio.gather(*[</text></symbol><symbol id="14"><text x="8.016" y="1.67" class="f">calculate.aio(num)</text><text x="27.054" y="1.67" class="f">for</text><text x="31.062" y="1.67" class="f">num</text><text x="35.07" y="1.67" class="f">in</text><text x="38.076" y="1.67" class="f">numbers</text></symbol><symbol id="15"><text x="4.008" y="1.67" class="f">])</text></symbol><symbol id="16"><text x="4.008" y="1.67" class="f">return</text><text x="11.022" y="1.67" class="f">sum(results)</text><text x="24.048" y="1.67" class="f">/</text><text x="26.052" y="1.67" class="f">len(results)</text></symbol><symbol id="17"><text y="1.67" class="f">if</text><text x="3.006" y="1.67" class="f">__name__</text><text x="12.024" y="1.67" class="f">==</text><text x="15.03" y="1.67" class="f">&quot;__main__&quot;:</text></symbol><symbol id="18"><text x="4.008" y="1.67" class="f">flyte.init()</text></symbol><symbol id="19"><text x="4.008" y="1.67" class="f">run</text><text x="8.016" y="1.67" class="f">=</text><text x="10.02" y="1.67" class="f">flyte.run(main,</text><text x="26.052" y="1.67" class="f">numbers=list(range(10)))</text></symbol><symbol id="20"><text x="4.008" y="1.67" class="f">print(f&quot;Result:</text><text x="20.04" y="1.67" class="f">{run.result}&quot;)</text></symbol><symbol id="21"><text y="1.67" class="f">$</text><text x="2.004" y="1.67" class="f">python</text><text x="9.018" y="1.67" class="f">readme_example.py</text></symbol><symbol id="22"><text y="1.67" class="f">Filtered</text><text x="9.018" y="1.67" class="f">traceback</text><text x="19.038" y="1.67" class="f">(most</text><text x="25.05" y="1.67" class="f">recent</text><text x="32.064" y="1.67" class="f">call</text><text x="37.074" y="1.67" class="f">last):</text></symbol><symbol id="23"><text x="2.004" y="1.67" class="f">File</text><text x="7.014" y="1.67" class="f">&quot;/output/recordings/readme_example.py&quot;,</text><text x="47.094" y="1.67" class="f">line</text><text x="52.104" y="1.67" class="f">23,</text><text x="56.112" y="1.67" class="f">in</text><text x="59.118" y="1.67" class="f">&lt;module&gt;</text></symbol><symbol id="24"><text x="21.042" y="1.67" class="f">^^^^^^^^^^</text></symbol><symbol id="25"><text y="1.67" class="f">AttributeError:</text><text x="16.032" y="1.67" class="f">&apos;_LocalRun&apos;</text><text x="28.056" y="1.67" class="f">object</text><text x="35.07" y="1.67" class="f">has</text><text x="39.078" y="1.67" class="f">no</text><text x="42.084" y="1.67" class="f">attribute</text><text x="52.104" y="1.67" class="f">&apos;result&apos;</text></symbol><symbol id="a"><path fill="transparent" d="M0 0h110v40H0z"/></symbol></defs><path class="a" d="M0 0h110v86.84H0z"/><g style="animation-duration:1.526769s;animation-iteration-count:infinite;animation-name:h;animation-timing-function:steps(1,end)"><svg width="880"><svg><use xlink:href="#a"/></svg><svg x="110"><use xlink:href="#a"/><use xlink:href="#1"/></svg><svg x="220"><use xlink:href="#a"/><use xlink:href="#1"/><use xlink:href="#2" y="2.171"/></svg><svg x="330"><use xlink:href="#a"/><use xlink:href="#1"/><use xlink:href="#2" y="2.171"/><use xlink:href="#3" y="4.342"/><use xlink:href="#4" y="6.513"/><use xlink:href="#5" y="10.855"/><use xlink:href="#6" y="13.026"/><use xlink:href="#7" y="15.197"/><use xlink:href="#8" y="17.368"/><use xlink:href="#9" y="21.71"/><use xlink:href="#10" y="23.881"/><use xlink:href="#11" y="26.052"/><use xlink:href="#9" y="30.394"/><use xlink:href="#12" y="32.565"/><use xlink:href="#13" y="34.736"/><use xlink:href="#14" y="36.907"/><use xlink:href="#15" y="39.078"/><use xlink:href="#16" y="41.249"/><use xlink:href="#17" y="45.591"/><use xlink:href="#18" y="47.762"/><use xlink:href="#19" y="49.933"/><use xlink:href="#20" y="52.104"/></svg><svg x="440"><use xlink:href="#a"/><use xlink:href="#1"/><use xlink:href="#2" y="2.171"/><use xlink:href="#3" y="4.342"/><use xlink:href="#4" y="6.513"/><use xlink:href="#5" y="10.855"/><use xlink:href="#6" y="13.026"/><use xlink:href="#7" y="15.197"/><use xlink:href="#8" y="17.368"/><use xlink:href="#9" y="21.71"/><use xlink:href="#10" y="23.881"/><use xlink:href="#11" y="26.052"/><use xlink:href="#9" y="30.394"/><use xlink:href="#12" y="32.565"/><use xlink:href="#13" y="34.736"/><use xlink:href="#14" y="36.907"/><use xlink:href="#15" y="39.078"/><use xlink:href="#16" y="41.249"/><use xlink:href="#17" y="45.591"/><use xlink:href="#18" y="47.762"/><use xlink:href="#19" y="49.933"/><use xlink:href="#20" y="52.104"/><use xlink:href="#21" y="54.275"/></svg><svg x="550"><use xlink:href="#a"/><use xlink:href="#1"/><use xlink:href="#2" y="2.171"/><use xlink:href="#3" y="4.342"/><use xlink:href="#4" y="6.513"/><use xlink:href="#5" y="10.855"/><use xlink:href="#6" y="13.026"/><use xlink:href="#7" y="15.197"/><use xlink:href="#8" y="17.368"/><use xlink:href="#9" y="21.71"/><use xlink:href="#10" y="23.881"/><use xlink:href="#11" y="26.052"/><use xlink:href="#9" y="30.394"/><use xlink:href="#12" y="32.565"/><use xlink:href="#13" y="34.736"/><use xlink:href="#14" y="36.907"/><use xlink:href="#15" y="39.078"/><use xlink:href="#16" y="41.249"/><use xlink:href="#17" y="45.591"/><use xlink:href="#18" y="47.762"/><use xlink:href="#19" y="49.933"/><use xlink:href="#20" y="52.104"/><use xlink:href="#21" y="54.275"/><use xlink:href="#22" y="56.446"/></svg><svg x="660"><use xlink:href="#a"/><use xlink:href="#1"/><use xlink:href="#2" y="2.171"/><use xlink:href="#3" y="4.342"/><use xlink:href="#4" y="6.513"/><use xlink:href="#5" y="10.855"/><use xlink:href="#6" y="13.026"/><use xlink:href="#7" y="15.197"/><use xlink:href="#8" y="17.368"/><use xlink:href="#9" y="21.71"/><use xlink:href="#10" y="23.881"/><use xlink:href="#11" y="26.052"/><use xlink:href="#9" y="30.394"/><use xlink:href="#12" y="32.565"/><use xlink:href="#13" y="34.736"/><use xlink:href="#14" y="36.907"/><use xlink:href="#15" y="39.078"/><use xlink:href="#16" y="41.249"/><use xlink:href="#17" y="45.591"/><use xlink:href="#18" y="47.762"/><use xlink:href="#19" y="49.933"/><use xlink:href="#20" y="52.104"/><use xlink:href="#21" y="54.275"/><use xlink:href="#22" y="56.446"/><use xlink:href="#23" y="58.617"/><use xlink:href="#20" y="60.788"/><use xlink:href="#24" y="62.959"/><use xlink:href="#25" y="65.13"/></svg><svg x="770"><use xlink:href="#a"/><use xlink:href="#1"/><use xlink:href="#2" y="2.171"/><use xlink:href="#3" y="4.342"/><use xlink:href="#4" y="6.513"/><use xlink:href="#5" y="10.855"/><use xlink:href="#6" y="13.026"/><use xlink:href="#7" y="15.197"/><use xlink:href="#8" y="17.368"/><use xlink:href="#9" y="21.71"/><use xlink:href="#10" y="23.881"/><use xlink:href="#11" y="26.052"/><use xlink:href="#9" y="30.394"/><use xlink:href="#12" y="32.565"/><use xlink:href="#13" y="34.736"/><use xlink:href="#14" y="36.907"/><use xlink:href="#15" y="39.078"/><use xlink:href="#16" y="41.249"/><use xlink:href="#17" y="45.591"/><use xlink:href="#18" y="47.762"/><use xlink:href="#19" y="49.933"/><use xlink:href="#20" y="52.104"/><use xlink:href="#21" y="54.275"/><use xlink:href="#22" y="56.446"/><use xlink:href="#23" y="58.617"/><use xlink:href="#20" y="60.788"/><use xlink:href="#24" y="62.959"/><use xlink:href="#25" y="65.13"/></svg></svg></g></g></svg></svg>