<svg xmlns="http://www.w3.org/2000/svg" xmlns:xlink="http://www.w3.org/1999/xlink" width="1160" height="948.4"><rect width="1160" height="948.4" rx="5" ry="5" class="a"/><svg y="0%" x="0%"><circle cx="20" cy="20" r="6" fill="#ff5f58"/><circle cx="40" cy="20" r="6" fill="#ffbd2e"/><circle cx="60" cy="20" r="6" fill="#18c132"/></svg><svg height="868.4" viewBox="0 0 110 86.84" width="1100" x="25" xmlns="http://www.w3.org/2000/svg" xmlns:xlink="http://www.w3.org/1999/xlink" y="60"><style>@keyframes h{0%{transform:translateX(0)}.2%{transform:translateX(-110px)}33.4%{transform:translateX(-220px)}33.5%{transform:translateX(-330px)}66.7%{transform:translateX(-440px)}66.8%{transform:translateX(-550px)}to{transform:translateX(-660px)}}.a{fill:#282d35}.f{fill:#b9c0cb;white-space:pre}</style><g font-family="Monaco,Consolas,Menlo,'Bitstream Vera Sans Mono','Powerline Symbols',monospace" font-size="1.67"><defs><symbol id="1"><text y="1.67" class="f">#</text><text x="2.004" y="1.67" class="f">Step</text><text x="7.014" y="1.67" class="f">3:</text><text x="10.02" y="1.67" class="f">CLI</text><text x="14.028" y="1.67" class="f">Usage</text></symbol><symbol id="2"><text y="1.67" class="f">$</text><text x="2.004" y="1.67" class="f">flyte</text><text x="8.016" y="1.67" class="f">--version</text></symbol><symbol id="3"><text y="1.67" class="f">/output/recordings/cli_test.sh:</text><text x="32.064" y="1.67" class="f">line</text><text x="37.074" y="1.67" class="f">5:</text><text x="40.08" y="1.67" class="f">flyte:</text><text x="47.094" y="1.67" class="f">command</text><text x="55.11" y="1.67" class="f">not</text><text x="59.118" y="1.67" class="f">found</text></symbol><symbol id="4"><text y="1.67" class="f">$</text><text x="2.004" y="1.67" class="f">flyte</text><text x="8.016" y="1.67" class="f">--help</text></symbol><symbol id="5"><text y="1.67" class="f">/output/recordings/cli_test.sh:</text><text x="32.064" y="1.67" class="f">line</text><text x="37.074" y="1.67" class="f">9:</text><text x="40.08" y="1.67" class="f">flyte:</text><text x="47.094" y="1.67" class="f">command</text><text x="55.11" y="1.67" class="f">not</text><text x="59.118" y="1.67" class="f">found</text></symbol><symbol id="a"><path fill="transparent" d="M0 0h110v40H0z"/></symbol></defs><path class="a" d="M0 0h110v86.84H0z"/><g style="animation-duration:1.508309s;animation-iteration-count:infinite;animation-name:h;animation-timing-function:steps(1,end)"><svg width="770"><svg><use xlink:href="#a"/></svg><svg x="110"><use xlink:href="#a"/><use xlink:href="#1"/></svg><svg x="220"><use xlink:href="#a"/><use xlink:href="#1"/><use xlink:href="#2" y="2.171"/></svg><svg x="330"><use xlink:href="#a"/><use xlink:href="#1"/><use xlink:href="#2" y="2.171"/><use xlink:href="#3" y="4.342"/></svg><svg x="440"><use xlink:href="#a"/><use xlink:href="#1"/><use xlink:href="#2" y="2.171"/><use xlink:href="#3" y="4.342"/><use xlink:href="#4" y="8.684"/></svg><svg x="550"><use xlink:href="#a"/><use xlink:href="#1"/><use xlink:href="#2" y="2.171"/><use xlink:href="#3" y="4.342"/><use xlink:href="#4" y="8.684"/><use xlink:href="#5" y="10.855"/></svg><svg x="660"><use xlink:href="#a"/><use xlink:href="#1"/><use xlink:href="#2" y="2.171"/><use xlink:href="#3" y="4.342"/><use xlink:href="#4" y="8.684"/><use xlink:href="#5" y="10.855"/></svg></svg></g></g></svg></svg>