<svg xmlns="http://www.w3.org/2000/svg" xmlns:xlink="http://www.w3.org/1999/xlink" width="1160" height="948.4"><rect width="1160" height="948.4" rx="5" ry="5" class="a"/><svg y="0%" x="0%"><circle cx="20" cy="20" r="6" fill="#ff5f58"/><circle cx="40" cy="20" r="6" fill="#ffbd2e"/><circle cx="60" cy="20" r="6" fill="#18c132"/></svg><svg height="868.4" viewBox="0 0 110 86.84" width="1100" x="25" xmlns="http://www.w3.org/2000/svg" xmlns:xlink="http://www.w3.org/1999/xlink" y="60"><style>@keyframes h{0%{transform:translateX(0)}.2%{transform:translateX(-110px)}27%{transform:translateX(-220px)}29.1%{transform:translateX(-440px)}56.3%{transform:translateX(-550px)}58.3%{transform:translateX(-660px)}85.5%{transform:translateX(-770px)}to{transform:translateX(-880px)}}.a{fill:#282d35}.f{fill:#b9c0cb;white-space:pre}</style><g font-family="Monaco,Consolas,Menlo,'Bitstream Vera Sans Mono','Powerline Symbols',monospace" font-size="1.67"><defs><symbol id="1"><text y="1.67" class="f">#</text><text x="2.004" y="1.67" class="f">Step:</text><text x="8.016" y="1.67" class="f">Dependencies</text><text x="21.042" y="1.67" class="f">&amp;</text><text x="23.046" y="1.67" class="f">Weight</text></symbol><symbol id="2"><text y="1.67" class="f">---</text><text x="4.008" y="1.67" class="f">Direct</text><text x="11.022" y="1.67" class="f">dependencies</text><text x="24.048" y="1.67" class="f">---</text></symbol><symbol id="3"><text y="1.67" class="f">Direct:</text><text x="8.016" y="1.67" class="f">20</text></symbol><symbol id="4"><text x="2.004" y="1.67" class="f">aiofiles&gt;=24.1.0</text></symbol><symbol id="5"><text x="2.004" y="1.67" class="f">aiolimiter&gt;=1.2.1</text></symbol><symbol id="6"><text x="2.004" y="1.67" class="f">async-lru&gt;=2.0.5</text></symbol><symbol id="7"><text x="2.004" y="1.67" class="f">click&gt;=8.2.1</text></symbol><symbol id="8"><text x="2.004" y="1.67" class="f">cloudpickle&gt;=3.1.1</text></symbol><symbol id="9"><text x="2.004" y="1.67" class="f">docstring_parser&gt;=0.16</text></symbol><symbol id="10"><text x="2.004" y="1.67" class="f">flyteidl2==2.0.7</text></symbol><symbol id="11"><text x="2.004" y="1.67" class="f">fsspec&gt;=2025.3.0</text></symbol><symbol id="12"><text x="2.004" y="1.67" class="f">grpcio&gt;=1.71.0</text></symbol><symbol id="13"><text x="2.004" y="1.67" class="f">httpx&lt;1.0.0,&gt;=0.28.1</text></symbol><symbol id="14"><text x="2.004" y="1.67" class="f">keyring&gt;=25.6.0</text></symbol><symbol id="15"><text x="2.004" y="1.67" class="f">mashumaro</text></symbol><symbol id="16"><text x="2.004" y="1.67" class="f">msgpack&gt;=1.1.0</text></symbol><symbol id="17"><text x="2.004" y="1.67" class="f">obstore&gt;=0.7.3</text></symbol><symbol id="18"><text x="2.004" y="1.67" class="f">packaging</text></symbol><symbol id="19"><text x="2.004" y="1.67" class="f">protobuf&gt;=6.30.1</text></symbol><symbol id="20"><text x="2.004" y="1.67" class="f">pydantic&gt;=2.10.6</text></symbol><symbol id="21"><text x="2.004" y="1.67" class="f">pyyaml&gt;=6.0.2</text></symbol><symbol id="22"><text x="2.004" y="1.67" class="f">rich-click==1.8.9</text></symbol><symbol id="23"><text x="2.004" y="1.67" class="f">toml&gt;=0.10.2</text></symbol><symbol id="24"><text y="1.67" class="f">---</text><text x="4.008" y="1.67" class="f">Total</text><text x="10.02" y="1.67" class="f">packages</text><text x="19.038" y="1.67" class="f">---</text></symbol><symbol id="25"><text y="1.67" class="f">Total:</text><text x="7.014" y="1.67" class="f">54</text></symbol><symbol id="26"><text y="1.67" class="f">---</text><text x="4.008" y="1.67" class="f">Import</text><text x="11.022" y="1.67" class="f">time</text><text x="16.032" y="1.67" class="f">---</text></symbol><symbol id="a"><path fill="transparent" d="M0 0h110v40H0z"/></symbol></defs><path class="a" d="M0 0h110v86.84H0z"/><g style="animation-duration:1.86452s;animation-iteration-count:infinite;animation-name:h;animation-timing-function:steps(1,end)"><svg width="990"><svg><use xlink:href="#a"/></svg><svg x="110"><use xlink:href="#a"/><use xlink:href="#1"/></svg><svg x="220"><use xlink:href="#a"/><use xlink:href="#1"/><use xlink:href="#2" y="2.171"/></svg><svg x="330"><use xlink:href="#a"/><use xlink:href="#1"/><use xlink:href="#2" y="2.171"/><use xlink:href="#3" y="4.342"/><use xlink:href="#4" y="6.513"/><use xlink:href="#5" y="8.684"/><use xlink:href="#6" y="10.855"/><use xlink:href="#7" y="13.026"/><use xlink:href="#8" y="15.197"/><use xlink:href="#9" y="17.368"/><use xlink:href="#10" y="19.539"/><use xlink:href="#11" y="21.71"/><use xlink:href="#12" y="23.881"/><use xlink:href="#13" y="26.052"/><use xlink:href="#14" y="28.223"/><use xlink:href="#15" y="30.394"/><use xlink:href="#16" y="32.565"/><use xlink:href="#17" y="34.736"/><use xlink:href="#18" y="36.907"/><use xlink:href="#19" y="39.078"/></svg><svg x="440"><use xlink:href="#a"/><use xlink:href="#1"/><use xlink:href="#2" y="2.171"/><use xlink:href="#3" y="4.342"/><use xlink:href="#4" y="6.513"/><use xlink:href="#5" y="8.684"/><use xlink:href="#6" y="10.855"/><use xlink:href="#7" y="13.026"/><use xlink:href="#8" y="15.197"/><use xlink:href="#9" y="17.368"/><use xlink:href="#10" y="19.539"/><use xlink:href="#11" y="21.71"/><use xlink:href="#12" y="23.881"/><use xlink:href="#13" y="26.052"/><use xlink:href="#14" y="28.223"/><use xlink:href="#15" y="30.394"/><use xlink:href="#16" y="32.565"/><use xlink:href="#17" y="34.736"/><use xlink:href="#18" y="36.907"/><use xlink:href="#19" y="39.078"/><use xlink:href="#20" y="41.249"/><use xlink:href="#21" y="43.42"/><use xlink:href="#22" y="45.591"/><use xlink:href="#23" y="47.762"/></svg><svg x="550"><use xlink:href="#a"/><use xlink:href="#1"/><use xlink:href="#2" y="2.171"/><use xlink:href="#3" y="4.342"/><use xlink:href="#4" y="6.513"/><use xlink:href="#5" y="8.684"/><use xlink:href="#6" y="10.855"/><use xlink:href="#7" y="13.026"/><use xlink:href="#8" y="15.197"/><use xlink:href="#9" y="17.368"/><use xlink:href="#10" y="19.539"/><use xlink:href="#11" y="21.71"/><use xlink:href="#12" y="23.881"/><use xlink:href="#13" y="26.052"/><use xlink:href="#14" y="28.223"/><use xlink:href="#15" y="30.394"/><use xlink:href="#16" y="32.565"/><use xlink:href="#17" y="34.736"/><use xlink:href="#18" y="36.907"/><use xlink:href="#19" y="39.078"/><use xlink:href="#20" y="41.249"/><use xlink:href="#21" y="43.42"/><use xlink:href="#22" y="45.591"/><use xlink:href="#23" y="47.762"/><use xlink:href="#24" y="52.104"/></svg><svg x="660"><use xlink:href="#a"/><use xlink:href="#1"/><use xlink:href="#2" y="2.171"/><use xlink:href="#3" y="4.342"/><use xlink:href="#4" y="6.513"/><use xlink:href="#5" y="8.684"/><use xlink:href="#6" y="10.855"/><use xlink:href="#7" y="13.026"/><use xlink:href="#8" y="15.197"/><use xlink:href="#9" y="17.368"/><use xlink:href="#10" y="19.539"/><use xlink:href="#11" y="21.71"/><use xlink:href="#12" y="23.881"/><use xlink:href="#13" y="26.052"/><use xlink:href="#14" y="28.223"/><use xlink:href="#15" y="30.394"/><use xlink:href="#16" y="32.565"/><use xlink:href="#17" y="34.736"/><use xlink:href="#18" y="36.907"/><use xlink:href="#19" y="39.078"/><use xlink:href="#20" y="41.249"/><use xlink:href="#21" y="43.42"/><use xlink:href="#22" y="45.591"/><use xlink:href="#23" y="47.762"/><use xlink:href="#24" y="52.104"/><use xlink:href="#25" y="54.275"/></svg><svg x="770"><use xlink:href="#a"/><use xlink:href="#1"/><use xlink:href="#2" y="2.171"/><use xlink:href="#3" y="4.342"/><use xlink:href="#4" y="6.513"/><use xlink:href="#5" y="8.684"/><use xlink:href="#6" y="10.855"/><use xlink:href="#7" y="13.026"/><use xlink:href="#8" y="15.197"/><use xlink:href="#9" y="17.368"/><use xlink:href="#10" y="19.539"/><use xlink:href="#11" y="21.71"/><use xlink:href="#12" y="23.881"/><use xlink:href="#13" y="26.052"/><use xlink:href="#14" y="28.223"/><use xlink:href="#15" y="30.394"/><use xlink:href="#16" y="32.565"/><use xlink:href="#17" y="34.736"/><use xlink:href="#18" y="36.907"/><use xlink:href="#19" y="39.078"/><use xlink:href="#20" y="41.249"/><use xlink:href="#21" y="43.42"/><use xlink:href="#22" y="45.591"/><use xlink:href="#23" y="47.762"/><use xlink:href="#24" y="52.104"/><use xlink:href="#25" y="54.275"/><use xlink:href="#26" y="58.617"/></svg><svg x="880"><use xlink:href="#a"/><use xlink:href="#1"/><use xlink:href="#2" y="2.171"/><use xlink:href="#3" y="4.342"/><use xlink:href="#4" y="6.513"/><use xlink:href="#5" y="8.684"/><use xlink:href="#6" y="10.855"/><use xlink:href="#7" y="13.026"/><use xlink:href="#8" y="15.197"/><use xlink:href="#9" y="17.368"/><use xlink:href="#10" y="19.539"/><use xlink:href="#11" y="21.71"/><use xlink:href="#12" y="23.881"/><use xlink:href="#13" y="26.052"/><use xlink:href="#14" y="28.223"/><use xlink:href="#15" y="30.394"/><use xlink:href="#16" y="32.565"/><use xlink:href="#17" y="34.736"/><use xlink:href="#18" y="36.907"/><use xlink:href="#19" y="39.078"/><use xlink:href="#20" y="41.249"/><use xlink:href="#21" y="43.42"/><use xlink:href="#22" y="45.591"/><use xlink:href="#23" y="47.762"/><use xlink:href="#24" y="52.104"/><use xlink:href="#25" y="54.275"/><use xlink:href="#26" y="58.617"/><text y="62.458" class="f">Import</text><text x="7.014" y="62.458" class="f">time:</text><text x="13.026" y="62.458" class="f">0.260s</text></svg></svg></g></g></svg></svg>